<svg xmlns="http://www.w3.org/2000/svg" width="627" height="427" viewBox="0 0 627 427" version="1.1"><path d="M 191.909 145.554 C 185.758 147.448, 178.771 153.764, 176.247 159.712 C 175.129 162.346, 171.690 178, 168.605 194.500 C 165.519 211, 160.745 236.421, 157.997 250.991 C 155.249 265.561, 153 277.598, 153 277.741 C 153 277.883, 157.902 278, 163.893 278 C 172.316 278, 174.908 277.682, 175.324 276.598 C 176.199 274.319, 175.095 274, 166.333 274 C 159.721 274, 158 273.701, 158 272.550 C 158 271.753, 159.542 263.090, 161.427 253.300 C 163.311 243.510, 167.850 219.565, 171.513 200.089 C 175.175 180.613, 178.614 163.515, 179.154 162.094 C 181.007 157.221, 185.269 152.783, 190.383 150.402 C 195.459 148.039, 195.775 148.019, 229.750 148.010 C 263.330 148, 264 147.961, 264 146 C 264 144.038, 263.357 144.001, 230.250 144.070 C 204.150 144.124, 195.459 144.460, 191.909 145.554 M 306.607 145.582 C 306.273 146.452, 306 147.352, 306 147.582 C 306 147.812, 329.655 148, 358.567 148 C 416.574 148, 411.335 147.409, 409.512 153.750 C 408.988 155.572, 409.263 156, 410.957 156 C 413.185 156, 414.382 153.809, 415.546 147.607 L 416.223 144 361.718 144 C 312.940 144, 307.150 144.166, 306.607 145.582 M 423.667 191.750 C 423.356 193.262, 424.518 201.767, 426.250 210.648 L 429.398 226.797 436.167 227.179 C 444.133 227.629, 448.294 230.061, 448.865 234.599 C 449.066 236.195, 447.720 245.713, 445.875 255.750 L 442.520 274 420.795 274 C 400.094 274, 399.020 274.094, 398 276 C 396.943 277.975, 397.240 278, 421.277 278 L 445.625 278 449.345 258.250 C 451.391 247.387, 453.050 237.240, 453.032 235.700 C 452.950 228.551, 447.148 224, 438.118 224 C 433.674 224, 432.971 223.718, 432.506 221.750 C 431.861 219.021, 426 189.829, 426 189.344 C 426 189.155, 425.602 189, 425.117 189 C 424.631 189, 423.978 190.238, 423.667 191.750 M 189.530 258.250 C 189.306 258.938, 188.004 264.621, 186.635 270.879 C 183.960 283.117, 184.268 287, 187.916 287 C 190.540 287, 191.328 285.498, 189.902 283.214 C 188.985 281.746, 189.203 279.125, 190.925 270.924 C 192.129 265.191, 193.344 259.712, 193.624 258.750 C 193.996 257.477, 193.563 257, 192.036 257 C 190.882 257, 189.754 257.563, 189.530 258.250 M 245.152 257.886 C 243.175 259.138, 244.167 262.500, 246.514 262.500 C 247.947 262.500, 248.500 261.828, 248.500 260.083 C 248.500 257.416, 247.220 256.577, 245.152 257.886 M 287.390 258.426 C 286.480 260.797, 287.767 263.191, 289.747 262.810 C 290.854 262.597, 291.500 261.561, 291.500 260 C 291.500 257.149, 288.344 255.941, 287.390 258.426 M 275.250 260.662 C 274.563 260.940, 274 262.013, 274 263.048 C 274 264.083, 273.100 265.411, 272 266 C 269.859 267.146, 269.311 269.604, 271.067 270.189 C 271.812 270.437, 271.763 272.556, 270.903 277.223 C 269.516 284.750, 270.372 287, 274.622 287 C 277.313 287, 277.752 285.271, 275.483 283.610 C 274.186 282.661, 274.136 281.652, 275.138 276.666 C 276.067 272.041, 276.795 270.648, 278.655 269.941 C 281.313 268.930, 281.849 266, 279.375 266 C 278.103 266, 277.880 265.349, 278.350 263 C 278.948 260.009, 278.223 259.463, 275.250 260.662 M 200.009 268.837 C 196.999 271.847, 195.245 278.857, 196.376 283.361 C 197.926 289.537, 208.677 288.413, 211.444 281.786 C 215.643 271.731, 213.994 266, 206.900 266 C 203.781 266, 202.192 266.654, 200.009 268.837 M 223.114 267.633 C 218.843 270.624, 215.850 279.839, 217.636 284.495 C 218.706 287.283, 222.900 288.296, 225.722 286.447 C 228.830 284.410, 229.051 284.705, 227.629 289 C 226.518 292.353, 226.273 292.497, 221.769 292.439 C 218.498 292.397, 216.896 292.829, 216.500 293.859 C 215.726 295.877, 217.754 296.966, 222.316 296.985 C 227.205 297.004, 229.451 295.766, 230.836 292.288 C 232.452 288.227, 236.897 267.642, 236.349 266.755 C 235.450 265.301, 225.501 265.961, 223.114 267.633 M 241.160 275.750 C 238.539 287.521, 238.549 287, 240.933 287 C 243.043 287, 243.187 286.672, 245.453 276.688 C 247.480 267.760, 247.433 266, 245.165 266 C 243.660 266, 242.941 267.748, 241.160 275.750 M 254 268 C 250.718 271.282, 251.419 274.608, 256 277.500 C 258.200 278.889, 260 280.447, 260 280.963 C 260 282.755, 256.700 283.774, 253.692 282.912 C 250.376 281.961, 249 282.430, 249 284.512 C 249 286.221, 254.817 287.949, 258.316 287.280 C 264.872 286.027, 265.834 279.133, 260 275.213 C 255.437 272.148, 255.529 270.518, 260.271 270.429 C 264.727 270.346, 267.322 268.447, 264.992 266.974 C 262.313 265.280, 256.144 265.856, 254 268 M 285.536 268.250 C 281.242 287.509, 281.286 287, 283.920 287 C 285.474 287, 286.128 285.715, 287.351 280.250 C 290.431 266.495, 290.458 266, 288.130 266 C 286.776 266, 285.861 266.793, 285.536 268.250 M 297.009 268.837 C 295.085 270.762, 293.947 273.171, 293.474 276.325 C 292.500 282.817, 293.419 285.602, 296.938 286.829 C 299.879 287.854, 304.945 287.174, 304.981 285.750 C 304.991 285.337, 305 284.498, 305 283.883 C 305 283.225, 303.951 282.967, 302.444 283.256 C 298.812 283.950, 296.728 281.555, 297.546 277.626 C 298.680 272.177, 300.671 270, 304.523 270 C 307.333 270, 308 269.617, 308 268 C 308 266.327, 307.333 266, 303.923 266 C 300.778 266, 299.197 266.649, 297.009 268.837 M 314.112 268.585 C 312.950 270.061, 312 271.689, 312 272.201 C 312 274.401, 314.174 276.865, 316.979 277.843 C 318.944 278.528, 320 279.576, 320 280.841 C 320 283.386, 317.887 284.115, 313.858 282.959 C 311.539 282.294, 310.391 282.368, 309.867 283.215 C 308.818 284.913, 309.565 285.701, 313.428 286.976 C 319.900 289.112, 326.729 283.949, 324.639 278.501 C 324.321 277.674, 322.473 276.239, 320.531 275.313 C 318.328 274.263, 317 272.918, 317 271.738 C 317 270.132, 317.640 269.893, 321.250 270.154 C 324.923 270.419, 325.500 270.192, 325.500 268.480 C 325.500 266.834, 324.717 266.449, 320.862 266.200 C 316.836 265.939, 315.945 266.254, 314.112 268.585 M 202.477 272.394 C 198.476 278.502, 200.151 285.595, 204.984 283.009 C 207.515 281.654, 209 278.114, 209 273.435 C 209 270.446, 208.678 270, 206.523 270 C 205.014 270, 203.433 270.935, 202.477 272.394 M 224.073 272.635 C 221.898 275.399, 221.194 282.384, 222.979 283.487 C 224.310 284.310, 227.732 282.370, 228.943 280.107 C 229.487 279.090, 230.349 276.401, 230.860 274.130 C 231.777 270.047, 231.755 270, 228.966 270 C 227.110 270, 225.437 270.901, 224.073 272.635" stroke="none" fill="#55646f" fill-rule="evenodd"/><path d="M 277.759 129.514 C 276.376 130.897, 274.942 133.485, 274.573 135.264 C 274.203 137.044, 272.139 147.725, 269.985 159 C 262.593 197.698, 253.896 242.502, 253.340 244.750 C 252.789 246.976, 252.897 247, 263.257 247 C 278.671 247, 279.010 246.619, 283.049 224.741 C 284.243 218.273, 285.530 212.791, 285.908 212.557 C 287.442 211.609, 289.051 214.174, 296.229 229.010 C 301.366 239.627, 304.485 244.921, 306.116 245.793 C 307.767 246.676, 312.220 246.980, 320.589 246.784 L 332.679 246.500 326.700 234 C 323.412 227.125, 319.006 217.788, 316.908 213.252 L 313.093 205.003 319.263 197.252 C 322.656 192.988, 329.836 183.994, 335.216 177.264 C 340.597 170.534, 345 164.797, 345 164.514 C 345 163.499, 318.055 164.018, 315.797 165.077 C 314.534 165.670, 311.849 168.257, 309.832 170.827 C 291.679 193.952, 290.696 195.048, 289.714 193.262 C 289.483 192.843, 291.907 179, 295.100 162.500 C 298.292 146, 301.140 131.262, 301.427 129.750 L 301.950 127 291.111 127 C 280.867 127, 280.135 127.138, 277.759 129.514 M 216.230 163.550 C 201.372 167.551, 193.704 176.670, 193.569 190.500 C 193.455 202.100, 198.696 208.064, 214.214 213.993 C 218.772 215.734, 223.397 218.032, 224.493 219.100 C 226.338 220.897, 226.373 221.246, 224.963 223.771 C 222.458 228.260, 216.530 228.822, 204.456 225.715 C 191.300 222.329, 189.206 223.064, 184.892 232.577 C 183.237 236.228, 182.021 239.338, 182.191 239.488 C 184.323 241.364, 194.872 245.485, 201.757 247.131 C 223.066 252.225, 242.159 246.409, 249.156 232.695 C 251.538 228.024, 252.494 220.782, 251.555 214.518 C 250.321 206.291, 241.902 199.357, 227.368 194.598 C 218.054 191.548, 216.755 186.556, 224.602 183.966 C 227.580 182.983, 229.792 183.091, 237.115 184.578 C 245.877 186.357, 246.050 186.354, 248.755 184.396 C 251.529 182.387, 256.909 172.874, 256.968 169.871 C 257.006 167.929, 254.162 166.681, 243.590 164.004 C 234.422 161.681, 223.824 161.506, 216.230 163.550 M 350 166.563 C 350 168.577, 357.935 221.431, 360.532 236.721 C 361.216 240.742, 365.193 245.581, 368.497 246.410 C 371.511 247.166, 371.566 248.154, 368.919 254 C 364.531 263.695, 359.502 266.273, 345.689 265.907 L 337.546 265.692 335.819 274.096 C 334.869 278.718, 334.071 283.801, 334.046 285.392 L 334 288.284 349.750 287.774 C 364.605 287.293, 365.869 287.093, 372 284.258 C 382.030 279.621, 388.261 271.979, 394.635 256.500 C 395.994 253.200, 402.723 231.825, 409.589 209 C 416.454 186.175, 422.311 166.713, 422.603 165.750 C 423.087 164.157, 422.146 164, 412.123 164 C 396.484 164, 397.515 162.673, 389.791 192.732 C 386.366 206.059, 383.275 216.634, 382.923 216.232 C 382.571 215.829, 380.867 205.150, 379.137 192.500 C 376.046 169.906, 375.938 169.452, 372.980 166.750 C 370.116 164.135, 369.479 164, 359.984 164 L 350 164 350 166.563 M 434.750 223.706 C 435.988 223.944, 438.012 223.944, 439.250 223.706 C 440.488 223.467, 439.475 223.272, 437 223.272 C 434.525 223.272, 433.512 223.467, 434.750 223.706 M 432.768 227.725 C 434.565 227.947, 437.265 227.943, 438.768 227.715 C 440.271 227.486, 438.800 227.304, 435.500 227.310 C 432.200 227.315, 430.971 227.502, 432.768 227.725" stroke="none" fill="#ea4e6c" fill-rule="evenodd"/></svg>